<svg width="2200" height="2200" viewBox="0 0 2200 2200" fill="none" xmlns="http://www.w3.org/2000/svg">
<rect width="2200" height="2200" rx="400" fill="white"/>
<rect x="1200" y="200" width="800" height="400" fill="#FCFCFC"/>
<path fill-rule="evenodd" clip-rule="evenodd" d="M1600 1409.94C1600 1403.58 1597.47 1397.47 1592.97 1392.97L607.028 407.029C602.528 402.529 596.423 400 590.058 400H499.999H357.94C336.558 400 325.85 425.851 340.97 440.971L394.141 494.142C397.892 497.893 402.979 500 408.283 500H475.999C489.254 500 499.999 510.745 499.999 524V1676C499.999 1689.25 489.254 1700 475.999 1700H357.94C336.558 1700 325.85 1725.85 340.97 1740.97L392.97 1792.97C397.47 1797.47 403.575 1800 409.94 1800H499.999H599.999H742.058C763.44 1800 774.148 1774.15 759.028 1759.03L707.028 1707.03C702.528 1702.53 696.423 1700 690.058 1700H623.999C610.744 1700 599.999 1689.25 599.999 1676V857.941C599.999 836.559 625.85 825.851 640.97 840.971L1559.03 1759.03C1574.15 1774.15 1600 1763.44 1600 1742.06V1409.94Z" fill="#282828"/>
<path d="M1576.54 204.435C1583.44 181.753 1615.56 181.753 1622.46 204.435L1705.56 477.466C1707.89 485.119 1713.88 491.109 1721.53 493.438L1994.56 576.54C2017.25 583.444 2017.25 615.556 1994.56 622.46L1721.53 705.562C1713.88 707.891 1707.89 713.881 1705.56 721.534L1622.46 994.565C1615.56 1017.25 1583.44 1017.25 1576.54 994.565L1493.44 721.534C1491.11 713.881 1485.12 707.891 1477.47 705.562L1204.44 622.46C1181.75 615.556 1181.75 583.444 1204.44 576.54L1477.47 493.438C1485.12 491.109 1491.11 485.119 1493.44 477.466L1576.54 204.435Z" fill="#4C99FF"/>
</svg>
