<svg width="88" height="88" viewBox="0 0 88 88" fill="none" xmlns="http://www.w3.org/2000/svg">
<g clip-path="url(#clip0_189_88)">
<rect width="87.5052" height="87.4977" rx="43.7488" fill="#282828"/>
<path d="M52.5833 42.7272L55.8542 39.4564L48.0417 31.6439L44.7708 34.9147L36.1458 26.3105C34.5208 24.6855 31.875 24.6855 30.25 26.3105L26.2917 30.2689C24.6667 31.8939 24.6667 34.5397 26.2917 36.1647L34.8958 44.7689L25 54.6855V62.498H32.8125L42.7292 52.5814L51.3333 61.1855C53.3125 63.1647 55.9792 62.4355 57.2292 61.1855L61.1875 57.2272C62.8125 55.6022 62.8125 52.9564 61.1875 51.3314L52.5833 42.7272ZM37.875 41.8105L29.25 33.2064L33.1875 29.248L35.8333 31.8939L33.375 34.373L36.3125 37.3105L38.7917 34.8314L41.8125 37.8522L37.875 41.8105ZM54.2917 58.248L45.6875 49.6439L49.6458 45.6855L52.6667 48.7064L50.1875 51.1855L53.125 54.123L55.6042 51.6439L58.25 54.2897L54.2917 58.248Z" fill="white"/>
<path d="M61.8958 33.4144C62.7083 32.6019 62.7083 31.2894 61.8958 30.4769L57.0208 25.6019C56.0417 24.6227 54.6875 24.9977 54.0833 25.6019L50.2708 29.4144L58.0833 37.2269L61.8958 33.4144Z" fill="white"/>
</g>
<defs>
<clipPath id="clip0_189_88">
<rect width="87.5052" height="87.4977" rx="43.7488" fill="white"/>
</clipPath>
</defs>
</svg>
